<svg width="63" height="32" viewBox="0 0 63 32" fill="none" xmlns="http://www.w3.org/2000/svg">
<g filter="url(#filter0_d_185_1339)">
<mask id="path-1-outside-1_185_1339" maskUnits="userSpaceOnUse" x="2.03979" y="-0.874512" width="58" height="26" fill="black">
<rect fill="white" x="2.03979" y="-0.874512" width="58" height="26"/>
<path d="M4.11589 4.24739L9.71779 1.10644H12.9559V23.1255H9.13493V5.38073L5.83208 7.19406L4.11589 4.24739ZM33.7357 9.78454V14.415C33.7357 17.2214 33.0773 19.4341 31.7605 21.0531C30.4437 22.6506 28.5116 23.4493 25.9643 23.4493C23.417 23.4493 21.4849 22.6506 20.1681 21.0531C18.8513 19.4341 18.1929 17.2214 18.1929 14.415V9.78454C18.1929 6.97819 18.8513 4.77628 20.1681 3.17882C21.4849 1.58136 23.417 0.78263 25.9643 0.78263C28.5116 0.78263 30.4437 1.58136 31.7605 3.17882C33.0773 4.77628 33.7357 6.97819 33.7357 9.78454ZM29.8176 9.78454C29.8176 6.17946 28.5332 4.37692 25.9643 4.37692C24.6475 4.37692 23.6761 4.83025 23.05 5.73692C22.424 6.64358 22.111 7.99279 22.111 9.78454V14.415C22.111 16.2068 22.424 17.5668 23.05 18.495C23.6761 19.4017 24.6475 19.855 25.9643 19.855C28.5332 19.855 29.8176 18.0417 29.8176 14.415V9.78454ZM45.9799 5.44549V6.4493C45.9799 7.85247 45.6022 8.96422 44.8466 9.78454C44.1126 10.5833 43.0117 10.9826 41.5437 10.9826C40.0758 10.9826 38.9641 10.5833 38.2085 9.78454C37.4745 8.96422 37.1075 7.85247 37.1075 6.4493V5.44549C37.1075 4.04231 37.4745 2.94136 38.2085 2.14263C38.9641 1.3439 40.0758 0.944535 41.5437 0.944535C43.0117 0.944535 44.1126 1.3439 44.8466 2.14263C45.6022 2.94136 45.9799 4.04231 45.9799 5.44549ZM51.6466 1.10644H54.5609L43.9075 23.1255H40.9933L51.6466 1.10644ZM43.3895 5.44549C43.3895 4.0639 42.7742 3.37311 41.5437 3.37311C40.3348 3.37311 39.7304 4.0639 39.7304 5.44549V6.4493C39.7304 7.83088 40.3348 8.52168 41.5437 8.52168C42.7742 8.52168 43.3895 7.83088 43.3895 6.4493V5.44549ZM58.479 17.7503V18.7541C58.479 20.1572 58.1012 21.269 57.3456 22.0893C56.6117 22.888 55.5107 23.2874 54.0428 23.2874C52.5748 23.2874 51.4631 22.888 50.7075 22.0893C49.9736 21.269 49.6066 20.1572 49.6066 18.7541V17.7503C49.6066 16.3471 49.9736 15.2461 50.7075 14.4474C51.4631 13.6487 52.5748 13.2493 54.0428 13.2493C55.5107 13.2493 56.6117 13.6487 57.3456 14.4474C58.1012 15.2461 58.479 16.3471 58.479 17.7503ZM55.8885 17.7503C55.8885 16.3687 55.2733 15.6779 54.0428 15.6779C52.8339 15.6779 52.2295 16.3687 52.2295 17.7503V18.7541C52.2295 20.1356 52.8339 20.8264 54.0428 20.8264C55.2733 20.8264 55.8885 20.1356 55.8885 18.7541V17.7503Z"/>
</mask>
<path d="M4.11589 4.24739L9.71779 1.10644H12.9559V23.1255H9.13493V5.38073L5.83208 7.19406L4.11589 4.24739ZM33.7357 9.78454V14.415C33.7357 17.2214 33.0773 19.4341 31.7605 21.0531C30.4437 22.6506 28.5116 23.4493 25.9643 23.4493C23.417 23.4493 21.4849 22.6506 20.1681 21.0531C18.8513 19.4341 18.1929 17.2214 18.1929 14.415V9.78454C18.1929 6.97819 18.8513 4.77628 20.1681 3.17882C21.4849 1.58136 23.417 0.78263 25.9643 0.78263C28.5116 0.78263 30.4437 1.58136 31.7605 3.17882C33.0773 4.77628 33.7357 6.97819 33.7357 9.78454ZM29.8176 9.78454C29.8176 6.17946 28.5332 4.37692 25.9643 4.37692C24.6475 4.37692 23.6761 4.83025 23.05 5.73692C22.424 6.64358 22.111 7.99279 22.111 9.78454V14.415C22.111 16.2068 22.424 17.5668 23.05 18.495C23.6761 19.4017 24.6475 19.855 25.9643 19.855C28.5332 19.855 29.8176 18.0417 29.8176 14.415V9.78454ZM45.9799 5.44549V6.4493C45.9799 7.85247 45.6022 8.96422 44.8466 9.78454C44.1126 10.5833 43.0117 10.9826 41.5437 10.9826C40.0758 10.9826 38.9641 10.5833 38.2085 9.78454C37.4745 8.96422 37.1075 7.85247 37.1075 6.4493V5.44549C37.1075 4.04231 37.4745 2.94136 38.2085 2.14263C38.9641 1.3439 40.0758 0.944535 41.5437 0.944535C43.0117 0.944535 44.1126 1.3439 44.8466 2.14263C45.6022 2.94136 45.9799 4.04231 45.9799 5.44549ZM51.6466 1.10644H54.5609L43.9075 23.1255H40.9933L51.6466 1.10644ZM43.3895 5.44549C43.3895 4.0639 42.7742 3.37311 41.5437 3.37311C40.3348 3.37311 39.7304 4.0639 39.7304 5.44549V6.4493C39.7304 7.83088 40.3348 8.52168 41.5437 8.52168C42.7742 8.52168 43.3895 7.83088 43.3895 6.4493V5.44549ZM58.479 17.7503V18.7541C58.479 20.1572 58.1012 21.269 57.3456 22.0893C56.6117 22.888 55.5107 23.2874 54.0428 23.2874C52.5748 23.2874 51.4631 22.888 50.7075 22.0893C49.9736 21.269 49.6066 20.1572 49.6066 18.7541V17.7503C49.6066 16.3471 49.9736 15.2461 50.7075 14.4474C51.4631 13.6487 52.5748 13.2493 54.0428 13.2493C55.5107 13.2493 56.6117 13.6487 57.3456 14.4474C58.1012 15.2461 58.479 16.3471 58.479 17.7503ZM55.8885 17.7503C55.8885 16.3687 55.2733 15.6779 54.0428 15.6779C52.8339 15.6779 52.2295 16.3687 52.2295 17.7503V18.7541C52.2295 20.1356 52.8339 20.8264 54.0428 20.8264C55.2733 20.8264 55.8885 20.1356 55.8885 18.7541V17.7503Z" fill="white"/>
<path d="M4.11589 4.24739L3.62682 3.37515L2.74017 3.87228L3.25176 4.75067L4.11589 4.24739ZM9.71779 1.10644V0.106441H9.45657L9.22873 0.234193L9.71779 1.10644ZM12.9559 1.10644H13.9559V0.106441H12.9559V1.10644ZM12.9559 23.1255V24.1255H13.9559V23.1255H12.9559ZM9.13493 23.1255H8.13493V24.1255H9.13493V23.1255ZM9.13493 5.38073H10.1349V3.69091L8.65367 4.50415L9.13493 5.38073ZM5.83208 7.19406L4.96795 7.69734L5.45866 8.53987L6.31334 8.07064L5.83208 7.19406ZM4.60495 5.11964L10.2069 1.97869L9.22873 0.234193L3.62682 3.37515L4.60495 5.11964ZM9.71779 2.10644H12.9559V0.106441H9.71779V2.10644ZM11.9559 1.10644V23.1255H13.9559V1.10644H11.9559ZM12.9559 22.1255H9.13493V24.1255H12.9559V22.1255ZM10.1349 23.1255V5.38073H8.13493V23.1255H10.1349ZM8.65367 4.50415L5.35082 6.31748L6.31334 8.07064L9.61619 6.2573L8.65367 4.50415ZM6.6962 6.69078L4.98001 3.74411L3.25176 4.75067L4.96795 7.69734L6.6962 6.69078ZM31.7605 21.0531L32.5322 21.6892L32.5363 21.6841L31.7605 21.0531ZM20.1681 21.0531L19.3923 21.6841L19.3965 21.6892L20.1681 21.0531ZM20.1681 3.17882L19.3965 2.54275L19.3965 2.54275L20.1681 3.17882ZM31.7605 3.17882L32.5321 2.54275L32.5321 2.54275L31.7605 3.17882ZM23.05 5.73692L23.8729 6.30511L23.8729 6.30511L23.05 5.73692ZM23.05 18.495L22.2209 19.0542L22.2271 19.0632L23.05 18.495ZM32.7357 9.78454V14.415H34.7357V9.78454H32.7357ZM32.7357 14.415C32.7357 17.0708 32.1133 19.0344 30.9847 20.4221L32.5363 21.6841C34.0413 19.8337 34.7357 17.372 34.7357 14.415H32.7357ZM30.9889 20.417C29.9053 21.7315 28.2884 22.4493 25.9643 22.4493V24.4493C28.7348 24.4493 30.9821 23.5696 32.5321 21.6892L30.9889 20.417ZM25.9643 22.4493C23.6402 22.4493 22.0233 21.7315 20.9398 20.417L19.3965 21.6892C20.9466 23.5696 23.1938 24.4493 25.9643 24.4493V22.4493ZM20.9439 20.4221C19.8153 19.0344 19.1929 17.0708 19.1929 14.415H17.1929C17.1929 17.372 17.8873 19.8337 19.3923 21.6841L20.9439 20.4221ZM19.1929 14.415V9.78454H17.1929V14.415H19.1929ZM19.1929 9.78454C19.1929 7.12784 19.8156 5.17856 20.9398 3.81489L19.3965 2.54275C17.8869 4.374 17.1929 6.82853 17.1929 9.78454H19.1929ZM20.9398 3.81489C22.0233 2.50038 23.6402 1.78263 25.9643 1.78263V-0.21737C23.1938 -0.21737 20.9466 0.662338 19.3965 2.54275L20.9398 3.81489ZM25.9643 1.78263C28.2884 1.78263 29.9053 2.50038 30.9889 3.81489L32.5321 2.54275C30.9821 0.662338 28.7348 -0.21737 25.9643 -0.21737V1.78263ZM30.9889 3.81489C32.113 5.17856 32.7357 7.12784 32.7357 9.78454H34.7357C34.7357 6.82853 34.0417 4.374 32.5321 2.54275L30.9889 3.81489ZM30.8176 9.78454C30.8176 7.89349 30.4862 6.29578 29.6687 5.14851C28.8068 3.93887 27.5126 3.37692 25.9643 3.37692V5.37692C26.985 5.37692 27.6174 5.71623 28.0399 6.30914C28.5069 6.96441 28.8176 8.0705 28.8176 9.78454H30.8176ZM25.9643 3.37692C24.3922 3.37692 23.078 3.93649 22.2271 5.16873L23.8729 6.30511C24.2742 5.72401 24.9028 5.37692 25.9643 5.37692V3.37692ZM22.2271 5.16873C21.434 6.31746 21.111 7.90564 21.111 9.78454H23.111C23.111 8.07993 23.414 6.9697 23.8729 6.30511L22.2271 5.16873ZM21.111 9.78454V14.415H23.111V9.78454H21.111ZM21.111 14.415C21.111 16.2965 21.435 17.8887 22.221 19.0542L23.8791 17.9359C23.413 17.2448 23.111 16.117 23.111 14.415H21.111ZM22.2271 19.0632C23.078 20.2954 24.3922 20.855 25.9643 20.855V18.855C24.9028 18.855 24.2742 18.5079 23.8729 17.9268L22.2271 19.0632ZM25.9643 20.855C27.5149 20.855 28.8094 20.2885 29.6703 19.073C30.4865 17.9208 30.8176 16.316 30.8176 14.415H28.8176C28.8176 16.1407 28.5066 17.2559 28.0383 17.917C27.6148 18.5148 26.9826 18.855 25.9643 18.855V20.855ZM30.8176 14.415V9.78454H28.8176V14.415H30.8176ZM44.8466 9.78454L44.111 9.10706L44.1103 9.10791L44.8466 9.78454ZM38.2085 9.78454L37.4633 10.4513L37.4725 10.4617L37.482 10.4717L38.2085 9.78454ZM38.2085 2.14263L37.482 1.45543L37.4771 1.46068L37.4722 1.46601L38.2085 2.14263ZM44.8466 2.14263L44.1103 2.81926L44.1152 2.82458L44.1201 2.82983L44.8466 2.14263ZM51.6466 1.10644V0.106441H51.0195L50.7464 0.670915L51.6466 1.10644ZM54.5609 1.10644L55.4611 1.54197L56.1556 0.106441H54.5609V1.10644ZM43.9075 23.1255V24.1255H44.5346L44.8077 23.561L43.9075 23.1255ZM40.9933 23.1255L40.0931 22.69L39.3985 24.1255H40.9933V23.1255ZM57.3456 22.0893L56.6101 21.4118L56.6093 21.4127L57.3456 22.0893ZM50.7075 22.0893L49.9623 22.7561L49.9716 22.7664L49.9811 22.7765L50.7075 22.0893ZM50.7075 14.4474L49.9811 13.7602L49.9761 13.7654L49.9712 13.7708L50.7075 14.4474ZM57.3456 14.4474L56.6093 15.124L56.6142 15.1293L56.6192 15.1346L57.3456 14.4474ZM44.9799 5.44549V6.4493H46.9799V5.44549H44.9799ZM44.9799 6.4493C44.9799 7.66892 44.6558 8.51563 44.1111 9.10706L45.5821 10.462C46.5485 9.41281 46.9799 8.03603 46.9799 6.4493H44.9799ZM44.1103 9.10791C43.6256 9.63531 42.8348 9.98263 41.5437 9.98263V11.9826C43.1886 11.9826 44.5996 11.5312 45.5829 10.4612L44.1103 9.10791ZM41.5437 9.98263C40.2547 9.98263 39.4445 9.63601 38.935 9.09734L37.482 10.4717C38.4836 11.5305 39.8969 11.9826 41.5437 11.9826V9.98263ZM38.9537 9.11774C38.4251 8.52686 38.1075 7.67621 38.1075 6.4493H36.1075C36.1075 8.02874 36.524 9.40158 37.4633 10.4513L38.9537 9.11774ZM38.1075 6.4493V5.44549H36.1075V6.4493H38.1075ZM38.1075 5.44549C38.1075 4.21709 38.4256 3.38432 38.9448 2.81926L37.4722 1.46601C36.5235 2.4984 36.1075 3.86754 36.1075 5.44549H38.1075ZM38.935 2.82983C39.4445 2.29115 40.2547 1.94453 41.5437 1.94453V-0.0554651C39.8969 -0.0554651 38.4836 0.396647 37.482 1.45543L38.935 2.82983ZM41.5437 1.94453C42.8348 1.94453 43.6256 2.29186 44.1103 2.81926L45.5829 1.46601C44.5996 0.395943 43.1886 -0.0554651 41.5437 -0.0554651V1.94453ZM44.1201 2.82983C44.6553 3.39562 44.9799 4.22448 44.9799 5.44549H46.9799C46.9799 3.86014 46.549 2.4871 45.5731 1.45543L44.1201 2.82983ZM51.6466 2.10644H54.5609V0.106441H51.6466V2.10644ZM53.6607 0.670915L43.0074 22.69L44.8077 23.561L55.4611 1.54197L53.6607 0.670915ZM43.9075 22.1255H40.9933V24.1255H43.9075V22.1255ZM41.8934 23.561L52.5468 1.54197L50.7464 0.670915L40.0931 22.69L41.8934 23.561ZM44.3895 5.44549C44.3895 4.62726 44.2098 3.82681 43.6748 3.22612C43.1201 2.60336 42.345 2.37311 41.5437 2.37311V4.37311C41.9729 4.37311 42.1207 4.48825 42.1813 4.55629C42.2615 4.64639 42.3895 4.88213 42.3895 5.44549H44.3895ZM41.5437 2.37311C40.7479 2.37311 39.9789 2.60667 39.4312 3.2327C38.9057 3.83322 38.7304 4.63091 38.7304 5.44549H40.7304C40.7304 4.87848 40.8573 4.63998 40.9363 4.54971C40.993 4.48494 41.1307 4.37311 41.5437 4.37311V2.37311ZM38.7304 5.44549V6.4493H40.7304V5.44549H38.7304ZM38.7304 6.4493C38.7304 7.26387 38.9057 8.06157 39.4312 8.66209C39.9789 9.28811 40.7479 9.52168 41.5437 9.52168V7.52168C41.1307 7.52168 40.993 7.40985 40.9363 7.34508C40.8573 7.2548 40.7304 7.01631 40.7304 6.4493H38.7304ZM41.5437 9.52168C42.345 9.52168 43.1201 9.29143 43.6748 8.66867C44.2098 8.06798 44.3895 7.26753 44.3895 6.4493H42.3895C42.3895 7.01265 42.2615 7.24839 42.1813 7.3385C42.1207 7.40653 41.9729 7.52168 41.5437 7.52168V9.52168ZM44.3895 6.4493V5.44549H42.3895V6.4493H44.3895ZM57.479 17.7503V18.7541H59.479V17.7503H57.479ZM57.479 18.7541C57.479 19.9737 57.1548 20.8204 56.6101 21.4118L58.0812 22.7668C59.0476 21.7176 59.479 20.3408 59.479 18.7541H57.479ZM56.6093 21.4127C56.1247 21.9401 55.3338 22.2874 54.0428 22.2874V24.2874C55.6876 24.2874 57.0987 23.836 58.082 22.7659L56.6093 21.4127ZM54.0428 22.2874C52.7537 22.2874 51.9436 21.9408 51.434 21.4021L49.9811 22.7765C50.9826 23.8353 52.396 24.2874 54.0428 24.2874V22.2874ZM51.4528 21.4225C50.9241 20.8316 50.6066 19.981 50.6066 18.7541H48.6066C48.6066 20.3335 49.0231 21.7063 49.9623 22.7561L51.4528 21.4225ZM50.6066 18.7541V17.7503H48.6066V18.7541H50.6066ZM50.6066 17.7503C50.6066 16.5218 50.9246 15.6891 51.4439 15.124L49.9712 13.7708C49.0225 14.8032 48.6066 16.1723 48.6066 17.7503H50.6066ZM51.434 15.1346C51.9436 14.5959 52.7537 14.2493 54.0428 14.2493V12.2493C52.396 12.2493 50.9826 12.7014 49.9811 13.7602L51.434 15.1346ZM54.0428 14.2493C55.3338 14.2493 56.1247 14.5966 56.6093 15.124L58.082 13.7708C57.0987 12.7007 55.6876 12.2493 54.0428 12.2493V14.2493ZM56.6192 15.1346C57.1544 15.7004 57.479 16.5292 57.479 17.7503H59.479C59.479 16.1649 59.048 14.7919 58.0721 13.7602L56.6192 15.1346ZM56.8885 17.7503C56.8885 16.932 56.7088 16.1316 56.1738 15.5309C55.6192 14.9081 54.8441 14.6779 54.0428 14.6779V16.6779C54.472 16.6779 54.6197 16.793 54.6803 16.8611C54.7606 16.9512 54.8885 17.1869 54.8885 17.7503H56.8885ZM54.0428 14.6779C53.2469 14.6779 52.478 14.9114 51.9302 15.5375C51.4048 16.138 51.2295 16.9357 51.2295 17.7503H53.2295C53.2295 17.1832 53.3564 16.9447 53.4354 16.8545C53.492 16.7897 53.6298 16.6779 54.0428 16.6779V14.6779ZM51.2295 17.7503V18.7541H53.2295V17.7503H51.2295ZM51.2295 18.7541C51.2295 19.5686 51.4048 20.3663 51.9302 20.9669C52.478 21.5929 53.2469 21.8264 54.0428 21.8264V19.8264C53.6298 19.8264 53.492 19.7146 53.4354 19.6498C53.3564 19.5596 53.2295 19.3211 53.2295 18.7541H51.2295ZM54.0428 21.8264C54.8441 21.8264 55.6192 21.5962 56.1738 20.9734C56.7088 20.3727 56.8885 19.5723 56.8885 18.7541H54.8885C54.8885 19.3174 54.7606 19.5532 54.6803 19.6433C54.6197 19.7113 54.472 19.8264 54.0428 19.8264V21.8264ZM56.8885 18.7541V17.7503H54.8885V18.7541H56.8885Z" fill="black" mask="url(#path-1-outside-1_185_1339)"/>
</g>
<defs>
<filter id="filter0_d_185_1339" x="0.115967" y="0.782715" width="62.363" height="30.6665" filterUnits="userSpaceOnUse" color-interpolation-filters="sRGB">
<feFlood flood-opacity="0" result="BackgroundImageFix"/>
<feColorMatrix in="SourceAlpha" type="matrix" values="0 0 0 0 0 0 0 0 0 0 0 0 0 0 0 0 0 0 127 0" result="hardAlpha"/>
<feOffset dy="4"/>
<feGaussianBlur stdDeviation="2"/>
<feComposite in2="hardAlpha" operator="out"/>
<feColorMatrix type="matrix" values="0 0 0 0 0 0 0 0 0 0 0 0 0 0 0 0 0 0 0.25 0"/>
<feBlend mode="normal" in2="BackgroundImageFix" result="effect1_dropShadow_185_1339"/>
<feBlend mode="normal" in="SourceGraphic" in2="effect1_dropShadow_185_1339" result="shape"/>
</filter>
</defs>
</svg>
