<svg width="21" height="21" viewBox="0 0 21 21" fill="none" xmlns="http://www.w3.org/2000/svg">
<path d="M17.1529 6.76852L11.0039 12.8205C10.8697 12.9532 10.6886 13.0276 10.4999 13.0276C10.3112 13.0276 10.13 12.9532 9.99588 12.8205L3.84551 6.76983C3.71051 6.63717 3.52881 6.56284 3.33954 6.56284C3.15027 6.56284 2.96857 6.63717 2.83357 6.76983C2.76709 6.83464 2.71426 6.9121 2.67819 6.99764C2.64212 7.08319 2.62354 7.17509 2.62354 7.26793C2.62354 7.36077 2.64212 7.45267 2.67819 7.53821C2.71426 7.62376 2.76709 7.70121 2.83357 7.76602L8.98132 13.8166C9.38626 14.2142 9.93108 14.437 10.4986 14.437C11.0661 14.437 11.6109 14.2142 12.0158 13.8166L18.1636 7.76602C18.2302 7.70119 18.2832 7.62365 18.3194 7.53799C18.3556 7.45232 18.3743 7.36027 18.3743 7.26727C18.3743 7.17427 18.3556 7.08222 18.3194 6.99655C18.2832 6.91089 18.2302 6.83335 18.1636 6.76852C18.0286 6.63586 17.8469 6.56152 17.6576 6.56152C17.4683 6.56152 17.2866 6.63586 17.1516 6.76852" fill="#FDF6F6"/>
</svg>
