<svg width="34" height="34" viewBox="0 0 34 34" fill="none" xmlns="http://www.w3.org/2000/svg">
<path d="M26.9167 26.9165H7.08333V11.3332H26.9167M22.6667 1.4165V4.24984H11.3333V1.4165H8.5V4.24984H7.08333C5.51083 4.24984 4.25 5.51067 4.25 7.08317V26.9165C4.25 27.668 4.54851 28.3886 5.07986 28.92C5.61122 29.4513 6.33189 29.7498 7.08333 29.7498H26.9167C27.6681 29.7498 28.3888 29.4513 28.9201 28.92C29.4515 28.3886 29.75 27.668 29.75 26.9165V7.08317C29.75 6.33172 29.4515 5.61105 28.9201 5.0797C28.3888 4.54835 27.6681 4.24984 26.9167 4.24984H25.5V1.4165M24.0833 16.9998H17V24.0832H24.0833V16.9998Z" fill="white"/>
</svg>
