<svg width="18" height="16" viewBox="0 0 18 16" fill="none" xmlns="http://www.w3.org/2000/svg">
<path d="M12.9236 7.43337C13.0333 7.50003 13.1154 7.58337 13.17 7.68337C13.2246 7.78337 13.2524 7.88892 13.2534 8.00003C13.2544 8.11114 13.2268 8.2167 13.1708 8.3167C13.1147 8.4167 13.0326 8.50003 12.9244 8.5667L6.96522 12.0167C6.90429 12.05 6.84019 12.0749 6.77292 12.0914C6.70565 12.1078 6.64155 12.1163 6.58062 12.1167C6.38564 12.1167 6.21503 12.0527 6.06879 11.9247C5.92255 11.7967 5.84944 11.6385 5.84944 11.45L5.84944 4.55003C5.84944 4.36114 5.92255 4.2027 6.06879 4.0747C6.21503 3.9467 6.38564 3.88292 6.58062 3.88337C6.64155 3.88337 6.70541 3.89181 6.77219 3.9087C6.83897 3.92559 6.90307 3.95048 6.96449 3.98337L12.9236 7.43337Z" fill="white"/>
</svg>
