<svg width="39" height="38" viewBox="0 0 39 38" fill="none" xmlns="http://www.w3.org/2000/svg">
<path d="M17.2386 3.1665L14.5853 7.12484L16.3966 8.31234L11.3441 15.8332H11.1217C9.37402 15.8332 7.94409 17.2582 7.94409 18.9998C7.94605 19.7227 8.19614 20.4232 8.6528 20.9848C9.10946 21.5465 9.7452 21.9355 10.4544 22.0873L16.8732 31.6665H11.1217V34.8332H27.0098V31.6665H20.6546L13.5526 21.0265C14.032 20.459 14.2963 19.7417 14.2993 18.9998C14.2993 18.5248 14.1881 18.0498 13.9816 17.6223L19.0658 10.0857C18.7162 12.7457 20.2574 15.659 22.9584 17.4165L30.0127 6.919C27.3276 5.12984 24.0229 4.81317 21.6873 6.12734L17.2386 3.1665ZM29.123 11.0832L26.4855 15.0415C27.5659 15.754 29.0594 15.469 29.7903 14.3765C30.5211 13.284 30.1875 11.8115 29.123 11.0832ZM34.4773 19.9182L31.109 16.5457L32.2211 15.4373L35.5894 18.794L34.4773 19.9182ZM36.5427 11.0832H31.7763V9.49984H36.5427V11.0832ZM25.421 22.1665V17.4165H27.0098V22.1665H25.421Z" fill="white"/>
</svg>
