<svg width="20" height="20" viewBox="0 0 20 20" fill="none" xmlns="http://www.w3.org/2000/svg">
<path d="M14.3712 7.93661L17.0141 10.5883C17.4429 11.0128 17.7838 11.5183 18.0172 12.0756C18.2505 12.6329 18.3717 13.231 18.3737 13.8355C18.3757 14.4399 18.2586 15.0389 18.0289 15.5977C17.7993 16.1565 17.4618 16.6643 17.0358 17.0917C16.6098 17.5192 16.1037 17.8578 15.5467 18.0882C14.9897 18.3186 14.3928 18.4362 13.7903 18.4341C13.1879 18.4321 12.5918 18.3105 12.0363 18.0764C11.4809 17.8423 10.9771 17.5002 10.5539 17.0699L9.67353 16.1866C9.55448 16.0714 9.45951 15.9335 9.39415 15.781C9.32878 15.6285 9.29434 15.4645 9.29282 15.2985C9.29131 15.1326 9.32275 14.968 9.38532 14.8143C9.44789 14.6607 9.54033 14.5211 9.65725 14.4036C9.77417 14.2862 9.91323 14.1933 10.0663 14.1304C10.2194 14.0675 10.3834 14.0358 10.5489 14.0371C10.7143 14.0385 10.8778 14.0729 11.0298 14.1383C11.1818 14.2038 11.3193 14.2989 11.4343 14.4183L12.3164 15.3024C12.7064 15.6903 13.2337 15.9073 13.7828 15.906C14.3319 15.9047 14.8582 15.6852 15.2464 15.2956C15.6347 14.906 15.8533 14.3779 15.8544 13.8269C15.8555 13.276 15.6391 12.747 15.2524 12.3558L12.6096 9.70411C12.3239 9.41738 11.9611 9.2205 11.5656 9.13761C11.17 9.05472 10.759 9.08942 10.3828 9.23745C10.2488 9.29078 10.1231 9.34523 10.0058 9.40078L9.62037 9.58161C9.10542 9.81495 8.70924 9.91495 8.20509 9.40995C7.48084 8.68328 7.66854 8.01245 8.55144 7.40161C9.43093 6.79441 10.4946 6.51546 11.5577 6.61319C12.6209 6.71092 13.6163 7.17917 14.3712 7.93661ZM9.37951 2.92828L10.2599 3.81161C10.487 4.04726 10.6127 4.36295 10.61 4.6907C10.6073 5.01845 10.4764 5.33203 10.2456 5.5639C10.0147 5.79577 9.70226 5.92738 9.37561 5.93038C9.04895 5.93338 8.73419 5.80754 8.49911 5.57995L7.61788 4.69661C7.42639 4.49758 7.19732 4.3388 6.94402 4.22955C6.69072 4.12029 6.41827 4.06274 6.14256 4.06026C5.86686 4.05778 5.59343 4.11041 5.33821 4.21509C5.083 4.31977 4.85112 4.4744 4.65611 4.66995C4.46109 4.86551 4.30685 5.09807 4.20237 5.35408C4.0979 5.61008 4.04528 5.8844 4.0476 6.16102C4.04992 6.43764 4.10712 6.71104 4.21587 6.96524C4.32462 7.21945 4.48274 7.44938 4.681 7.64161L7.32386 10.2933C7.60951 10.58 7.97234 10.7769 8.36787 10.8598C8.7634 10.9427 9.17444 10.908 9.5506 10.7599C9.6846 10.7066 9.81029 10.6522 9.92768 10.5966L10.3131 10.4158C10.828 10.1824 11.225 10.0824 11.7283 10.5874C12.4526 11.3141 12.2649 11.9849 11.382 12.5958C10.5025 13.203 9.43883 13.4819 8.37569 13.3842C7.31255 13.2865 6.31711 12.8182 5.56223 12.0608L2.91938 9.40911C2.49052 8.98456 2.14961 8.47908 1.91626 7.92179C1.68291 7.3645 1.56174 6.76639 1.55972 6.16192C1.5577 5.55745 1.67487 4.95855 1.9045 4.3997C2.13412 3.84085 2.47165 3.33309 2.89766 2.90566C3.32367 2.47823 3.82974 2.13957 4.38673 1.90919C4.94373 1.6788 5.54064 1.56123 6.1431 1.56326C6.74557 1.56528 7.34168 1.68686 7.89712 1.92099C8.45257 2.15511 8.95636 2.498 9.37951 2.92828Z" fill="white"/>
</svg>
