<svg width="16" height="16" viewBox="0 0 16 16" fill="none" xmlns="http://www.w3.org/2000/svg">
<path d="M7.33325 13.9998C6.49992 13.9998 5.71947 13.8443 4.99192 13.5332C4.26436 13.2221 3.62814 12.7943 3.08325 12.2498C2.53836 11.7054 2.11059 11.0692 1.79992 10.3412C1.48925 9.61317 1.3337 8.83273 1.33325 7.99984C1.33281 7.16695 1.48836 6.3865 1.79992 5.6585C2.11148 4.9305 2.53925 4.29428 3.08325 3.74984C3.62725 3.20539 4.26347 2.77762 4.99192 2.4665C5.72036 2.15539 6.50081 1.99984 7.33325 1.99984C7.56659 1.99984 7.7917 2.01384 8.00858 2.04184C8.22547 2.06984 8.44481 2.11139 8.66659 2.1665V3.53317C8.44436 3.4665 8.22503 3.4165 8.00858 3.38317C7.79214 3.34984 7.56703 3.33317 7.33325 3.33317C6.02214 3.33317 4.91659 3.78317 4.01659 4.68317C3.11659 5.58317 2.66659 6.68873 2.66659 7.99984C2.66659 9.31095 3.11659 10.4165 4.01659 11.3165C4.91659 12.2165 6.02214 12.6665 7.33325 12.6665C8.64436 12.6665 9.74992 12.2165 10.6499 11.3165C11.5499 10.4165 11.9999 9.31095 11.9999 7.99984C11.9999 7.87762 11.9944 7.7665 11.9833 7.6665C11.9721 7.5665 11.9555 7.45539 11.9333 7.33317H13.2999C13.3221 7.45539 13.3333 7.5665 13.3333 7.6665V7.99984C13.3333 8.83317 13.1777 9.61384 12.8666 10.3418C12.5555 11.0698 12.1277 11.7058 11.5833 12.2498C11.0388 12.7938 10.4026 13.2216 9.67459 13.5332C8.94659 13.8447 8.16614 14.0003 7.33325 13.9998ZM9.19992 10.7998L6.66659 8.2665V4.6665H7.99992V7.73317L10.1333 9.8665L9.19992 10.7998ZM11.9999 5.99984V3.99984H9.99992V2.6665H11.9999V0.666504H13.3333V2.6665H15.3333V3.99984H13.3333V5.99984H11.9999Z" fill="white"/>
</svg>
