<svg width="40" height="40" viewBox="0 0 40 40" fill="none" xmlns="http://www.w3.org/2000/svg">
<g filter="url(#filter0_d_185_1382)">
<circle cx="16" cy="17" r="16" fill="#953D0E"/>
</g>
<path d="M10.1667 26C9.70833 26 9.31611 25.8043 8.99 25.413C8.66389 25.0217 8.50056 24.5507 8.5 24V10C8.5 9.45 8.66333 8.97933 8.99 8.588C9.31667 8.19667 9.70889 8.00067 10.1667 8H19.3333L23.5 13V24C23.5 24.55 23.3369 25.021 23.0108 25.413C22.6847 25.805 22.2922 26.0007 21.8333 26H10.1667ZM10.1667 24H21.8333V14H18.5V10H10.1667V24ZM11.8333 22H20.1667V20H11.8333V22ZM11.8333 14H16V12H11.8333V14ZM11.8333 18H20.1667V16H11.8333V18Z" fill="white"/>
<defs>
<filter id="filter0_d_185_1382" x="0" y="0" width="40" height="40" filterUnits="userSpaceOnUse" color-interpolation-filters="sRGB">
<feFlood flood-opacity="0" result="BackgroundImageFix"/>
<feColorMatrix in="SourceAlpha" type="matrix" values="0 0 0 0 0 0 0 0 0 0 0 0 0 0 0 0 0 0 127 0" result="hardAlpha"/>
<feOffset dx="4" dy="3"/>
<feGaussianBlur stdDeviation="2"/>
<feComposite in2="hardAlpha" operator="out"/>
<feColorMatrix type="matrix" values="0 0 0 0 0 0 0 0 0 0 0 0 0 0 0 0 0 0 0.57 0"/>
<feBlend mode="normal" in2="BackgroundImageFix" result="effect1_dropShadow_185_1382"/>
<feBlend mode="normal" in="SourceGraphic" in2="effect1_dropShadow_185_1382" result="shape"/>
</filter>
</defs>
</svg>
