<svg width="33" height="32" viewBox="0 0 33 32" fill="none" xmlns="http://www.w3.org/2000/svg">
<ellipse cx="16.4867" cy="16" rx="15.9982" ry="16" fill="#D35411" fill-opacity="0.7"/>
<path d="M23.9631 17V16H25.9628L16.9638 7L7.96484 16H9.96462V23C9.96462 23.5304 10.1753 24.0391 10.5503 24.4142C10.9254 24.7893 11.434 25 11.9644 25H14.4641" stroke="white" stroke-width="1.5" stroke-linecap="round" stroke-linejoin="round"/>
<path d="M13.9641 25V19C13.9641 18.4696 14.1748 17.9609 14.5498 17.5858C14.9249 17.2107 15.4335 17 15.9639 17H17.9637C18.494 17 19.0027 17.2107 19.3777 17.5858C19.7527 17.9609 19.9634 18.4696 19.9634 19M17.9637 26L20.9633 23L22.9631 25L26.9627 21" stroke="white" stroke-width="1.5" stroke-linecap="round" stroke-linejoin="round"/>
<path d="M23.9631 21H26.9631V24" stroke="white" stroke-width="1.5" stroke-linecap="round" stroke-linejoin="round"/>
</svg>
