<svg width="34" height="34" viewBox="0 0 34 34" fill="none" xmlns="http://www.w3.org/2000/svg">
<path d="M23.375 28.8788L20.6231 26.127L19.125 27.6251L23.375 31.8751L31.875 23.3751L30.3769 21.877L23.375 28.8788Z" fill="white"/>
<path d="M26.5625 5.3125H23.375V4.25C23.3733 3.68693 23.1489 3.14741 22.7507 2.74926C22.3526 2.3511 21.8131 2.12668 21.25 2.125H12.75C12.1869 2.12668 11.6474 2.3511 11.2493 2.74926C10.8511 3.14741 10.6267 3.68693 10.625 4.25V5.3125H7.4375C6.87443 5.31418 6.33491 5.5386 5.93676 5.93676C5.5386 6.33491 5.31418 6.87443 5.3125 7.4375V29.75C5.31418 30.3131 5.5386 30.8526 5.93676 31.2507C6.33491 31.6489 6.87443 31.8733 7.4375 31.875H17V29.75H7.4375V7.4375H10.625V10.625H23.375V7.4375H26.5625V19.125H28.6875V7.4375C28.6858 6.87443 28.4614 6.33491 28.0632 5.93676C27.6651 5.5386 27.1256 5.31418 26.5625 5.3125ZM21.25 8.5H12.75V4.25H21.25V8.5Z" fill="white"/>
</svg>
