<svg width="20" height="20" viewBox="0 0 20 20" fill="none" xmlns="http://www.w3.org/2000/svg">
<path d="M16.6667 8.33324C16.6667 8.11222 16.5789 7.90026 16.4226 7.74398C16.2663 7.5877 16.0544 7.4999 15.8333 7.4999C15.6123 7.4999 15.4004 7.5877 15.2441 7.74398C15.0878 7.90026 15 8.11222 15 8.33324H16.6667ZM5.00001 8.33324C5.00001 8.11222 4.91221 7.90026 4.75593 7.74398C4.59965 7.5877 4.38769 7.4999 4.16667 7.4999C3.94566 7.4999 3.7337 7.5877 3.57742 7.74398C3.42114 7.90026 3.33334 8.11222 3.33334 8.33324H5.00001ZM16.9108 10.5891C17.068 10.7409 17.2785 10.8249 17.497 10.823C17.7155 10.8211 17.9245 10.7334 18.079 10.5789C18.2335 10.4244 18.3212 10.2154 18.3231 9.9969C18.325 9.77841 18.241 9.56791 18.0892 9.41074L16.9108 10.5891ZM10 2.4999L10.5892 1.91074C10.4329 1.75451 10.221 1.66675 10 1.66675C9.77904 1.66675 9.56711 1.75451 9.41084 1.91074L10 2.4999ZM1.91084 9.41074C1.83125 9.48761 1.76776 9.57956 1.72409 9.68123C1.68041 9.7829 1.65743 9.89225 1.65646 10.0029C1.6555 10.1136 1.67659 10.2233 1.71849 10.3257C1.76039 10.4281 1.82227 10.5212 1.90051 10.5994C1.97875 10.6776 2.0718 10.7395 2.17421 10.7814C2.27663 10.8233 2.38636 10.8444 2.49701 10.8434C2.60766 10.8425 2.71701 10.8195 2.81868 10.7758C2.92035 10.7321 3.0123 10.6687 3.08917 10.5891L1.91084 9.41074ZM5.83334 18.3332H14.1667V16.6666H5.83334V18.3332ZM16.6667 15.8332V8.33324H15V15.8332H16.6667ZM5.00001 15.8332V8.33324H3.33334V15.8332H5.00001ZM18.0892 9.41074L10.5892 1.91074L9.41084 3.08907L16.9108 10.5891L18.0892 9.41074ZM9.41084 1.91074L1.91084 9.41074L3.08917 10.5891L10.5892 3.08907L9.41084 1.91074ZM14.1667 18.3332C14.8297 18.3332 15.4656 18.0698 15.9344 17.601C16.4033 17.1322 16.6667 16.4963 16.6667 15.8332H15C15 16.0543 14.9122 16.2662 14.7559 16.4225C14.5996 16.5788 14.3877 16.6666 14.1667 16.6666V18.3332ZM5.83334 16.6666C5.61233 16.6666 5.40036 16.5788 5.24408 16.4225C5.0878 16.2662 5.00001 16.0543 5.00001 15.8332H3.33334C3.33334 16.4963 3.59673 17.1322 4.06557 17.601C4.53441 18.0698 5.1703 18.3332 5.83334 18.3332V16.6666Z" fill="white"/>
</svg>
