<svg width="20" height="20" viewBox="0 0 20 20" fill="none" xmlns="http://www.w3.org/2000/svg">
<g clip-path="url(#clip0_57_138)">
<path fill-rule="evenodd" clip-rule="evenodd" d="M13.3333 7.49984C13.3333 8.38389 12.9821 9.23174 12.357 9.85686C11.7319 10.482 10.884 10.8332 9.99996 10.8332C9.1159 10.8332 8.26806 10.482 7.64294 9.85686C7.01782 9.23174 6.66663 8.38389 6.66663 7.49984C6.66663 6.61578 7.01782 5.76794 7.64294 5.14281C8.26806 4.51769 9.1159 4.1665 9.99996 4.1665C10.884 4.1665 11.7319 4.51769 12.357 5.14281C12.9821 5.76794 13.3333 6.61578 13.3333 7.49984ZM11.6666 7.49984C11.6666 7.94186 11.491 8.36579 11.1785 8.67835C10.8659 8.99091 10.442 9.1665 9.99996 9.1665C9.55793 9.1665 9.13401 8.99091 8.82145 8.67835C8.50889 8.36579 8.33329 7.94186 8.33329 7.49984C8.33329 7.05781 8.50889 6.63389 8.82145 6.32133C9.13401 6.00877 9.55793 5.83317 9.99996 5.83317C10.442 5.83317 10.8659 6.00877 11.1785 6.32133C11.491 6.63389 11.6666 7.05781 11.6666 7.49984Z" fill="white"/>
<path fill-rule="evenodd" clip-rule="evenodd" d="M9.99998 0.833252C4.93748 0.833252 0.833313 4.93742 0.833313 9.99992C0.833313 15.0624 4.93748 19.1666 9.99998 19.1666C15.0625 19.1666 19.1666 15.0624 19.1666 9.99992C19.1666 4.93742 15.0625 0.833252 9.99998 0.833252ZM2.49998 9.99992C2.49998 11.7416 3.09415 13.3449 4.08998 14.6183C4.78951 13.7 5.69177 12.9559 6.72635 12.4439C7.76092 11.9319 8.89981 11.6658 10.0541 11.6666C11.1936 11.6653 12.3184 11.9242 13.3426 12.4236C14.3668 12.923 15.2635 13.6497 15.9641 14.5483C16.6862 13.6013 17.1723 12.4959 17.3824 11.3237C17.5924 10.1516 17.5203 8.9462 17.1721 7.80741C16.8238 6.66861 16.2093 5.62913 15.3796 4.77495C14.5498 3.92077 13.5285 3.27647 12.4003 2.89534C11.2721 2.51422 10.0693 2.40723 8.89153 2.58323C7.71375 2.75923 6.59481 3.21316 5.62729 3.90746C4.65977 4.60177 3.87149 5.51648 3.32767 6.57592C2.78385 7.63535 2.50013 8.80906 2.49998 9.99992ZM9.99998 17.4999C8.27824 17.5027 6.60843 16.9104 5.27331 15.8233C5.81065 15.0538 6.52597 14.4255 7.35838 13.992C8.19078 13.5584 9.11561 13.3324 10.0541 13.3333C10.981 13.3324 11.8946 13.5528 12.7191 13.976C13.5437 14.3992 14.2553 15.0131 14.795 15.7666C13.4495 16.8891 11.7522 17.5027 9.99998 17.4999Z" fill="white"/>
</g>
<defs>
<clipPath id="clip0_57_138">
<rect width="20" height="20" fill="white"/>
</clipPath>
</defs>
</svg>
