<svg width="20" height="20" viewBox="0 0 20 20" fill="none" xmlns="http://www.w3.org/2000/svg">
<path d="M7.50001 15.4167C7.50001 14.3417 6.82501 13.4076 6.00001 12.7192C5.01292 11.8971 4.30313 10.7909 3.96725 9.55094C3.63136 8.31104 3.6857 6.99775 4.12286 5.78982C4.56001 4.5819 5.35876 3.53802 6.41038 2.80026C7.462 2.0625 8.71541 1.66671 10 1.66675C11.2844 1.66691 12.5376 2.06279 13.589 2.8005C14.6404 3.53822 15.439 4.58195 15.8761 5.78968C16.3132 6.99741 16.3676 8.31049 16.032 9.55024C15.6963 10.79 14.9868 11.8962 14 12.7184C13.175 13.4076 12.5 14.3417 12.5 15.4167M7.50001 15.4167H12.5M7.50001 15.4167V17.0834C7.50001 17.4149 7.6317 17.7329 7.86612 17.9673C8.10054 18.2017 8.41849 18.3334 8.75001 18.3334H11.25C11.5815 18.3334 11.8995 18.2017 12.1339 17.9673C12.3683 17.7329 12.5 17.4149 12.5 17.0834V15.4167" stroke="white" stroke-width="1.5" stroke-linecap="round" stroke-linejoin="round"/>
<path d="M8.33331 6.66667C8.33331 5.8225 9.07915 5 9.99998 5C10.9208 5 11.6666 5.68333 11.6666 6.5275C11.6666 6.83167 11.57 7.115 11.4025 7.35333C10.9041 8.06333 9.99998 8.74 9.99998 9.58333M9.99331 11.6667H10.0008" stroke="white" stroke-width="1.5" stroke-linecap="round" stroke-linejoin="round"/>
</svg>
